# xmcd
#
# Track frame offsets: 
#        150
#        34948
#        55245
#        74483
#        109749
#        143852
#        162826
#        179989
#        201277
#        212898
#        236401
#        257456
#        278878
#
# Disc length: 4039 seconds
#
# Revision: 0
# Processed by: cddbd v1.5.2PL0 Copyright (c) Steve Scherf et al.
# Submitted via: ExactAudioCopy v0.95b4
#
DISCID=cb0fc50d
DTITLE=Gov't Mule - Mighty High
DYEAR=2007
DGENRE=Blues
TTITLE0=I'm A Ram
TTITLE1=Rebel With A Cause
TTITLE2=Horseflies
TTITLE3=The Shape I'm In
TTITLE4=Play With Fire
TTITLE5=Hard To Handle
TTITLE6=Hard To Dubya
TTITLE7=Unblow Your Horn
TTITLE8=Unthrow That Spear
TTITLE9=So Ram, So Strong
TTITLE10=Outta Shape
TTITLE11=Reblow Your Mind
TTITLE12=Plasticene Era
EXTD=
EXTT0=
EXTT1=
EXTT2=
EXTT3=
EXTT4=
EXTT5=
EXTT6=
EXTT7=
EXTT8=
EXTT9=
EXTT10=
EXTT11=
EXTT12=
PLAYORDER=
